<?xml version="1.0" encoding="utf-8"?>
<!-- Generator: Adobe Illustrator 23.0.3, SVG Export Plug-In . SVG Version: 6.00 Build 0)  -->
<svg version="1.1" id="katman_1" xmlns="http://www.w3.org/2000/svg" xmlns:xlink="http://www.w3.org/1999/xlink" x="0px" y="0px"
	 viewBox="0 0 60 20" style="enable-background:new 0 0 60 20;" xml:space="preserve">
<style type="text/css">
	.st0{fill:#12284C;}
</style>
<g>
	<polygon class="st0" points="60,3.47 57.09,3.47 54.02,8.13 52.47,5.98 49.59,5.98 52.46,9.77 46.79,17.53 49.56,17.53 
		53.76,11.38 55.9,14.28 58.81,14.28 55.3,9.77 	"/>
	<path class="st0" d="M23.9,2.47c-0.38,0-0.72,0.14-1,0.42c-0.27,0.27-0.41,0.6-0.41,0.98c0,0.38,0.14,0.72,0.41,1
		c0.28,0.27,0.62,0.41,1,0.41c0.4,0,0.73-0.14,1-0.41c0.27-0.28,0.41-0.62,0.41-1c0-0.38-0.14-0.71-0.42-0.98
		C24.61,2.62,24.28,2.47,23.9,2.47z"/>
	<path class="st0" d="M36.14,5.69c-1.07,0-1.88,0.43-2.42,1.3c-0.53-0.87-1.33-1.3-2.39-1.3c-0.88,0-1.56,0.34-2.03,1.02h-0.03V5.96
		h-2.37v8.32h2.37V10.2c0-0.77,0.05-1.32,0.14-1.64c0.17-0.64,0.54-0.97,1.12-0.97c0.53,0,0.88,0.31,1.03,0.93
		c0.07,0.27,0.1,0.79,0.1,1.54v4.22h2.37V10.2c0-0.73,0.05-1.28,0.15-1.63c0.19-0.66,0.56-0.98,1.12-0.98c0.51,0,0.84,0.28,1,0.85
		c0.08,0.29,0.12,0.79,0.12,1.47v4.37h2.37V9.1C38.78,6.82,37.9,5.69,36.14,5.69z"/>
	<polygon class="st0" points="8.84,2.56 6.46,2.56 6.46,5.96 0,5.96 0,7.96 6.46,7.96 6.46,14.28 8.84,14.28 8.84,7.96 10.29,7.96 
		10.29,5.96 8.84,5.96 	"/>
	<path class="st0" d="M48.34,14.28V5.96H46v0.78c-0.6-0.7-1.37-1.05-2.32-1.05c-1.14,0-2.07,0.46-2.8,1.37c-0.67,0.84-1,1.84-1,3.02
		c0,1.2,0.33,2.23,1,3.08c0.72,0.93,1.67,1.39,2.83,1.39c0.97,0,1.72-0.34,2.25-1.03H46v0.76H48.34z M45.71,11.71
		c-0.4,0.5-0.88,0.75-1.46,0.75c-0.58,0-1.06-0.25-1.44-0.75c-0.35-0.46-0.52-0.99-0.52-1.59c0-0.6,0.17-1.12,0.52-1.58
		c0.38-0.5,0.86-0.75,1.44-0.75c0.58,0,1.06,0.25,1.46,0.75c0.35,0.45,0.53,0.98,0.53,1.58C46.24,10.71,46.06,11.24,45.71,11.71z"/>
	<rect x="22.71" y="5.98" class="st0" width="2.37" height="8.3"/>
	<path class="st0" d="M16.09,6.98c-0.81,0.86-1.22,1.92-1.22,3.17c0,1.22,0.4,2.26,1.19,3.12c0.8,0.86,1.81,1.29,3.02,1.29
		c0.76,0,1.44-0.17,2.05-0.51v-2.29c-0.47,0.53-1.03,0.8-1.66,0.8c-0.66,0-1.19-0.24-1.59-0.71c-0.4-0.44-0.59-1-0.59-1.68
		c0-0.66,0.18-1.22,0.54-1.69c0.41-0.52,0.93-0.78,1.56-0.78c0.62,0,1.2,0.27,1.75,0.81V6.21c-0.56-0.35-1.21-0.53-1.93-0.53
		C17.94,5.69,16.91,6.12,16.09,6.98z"/>
	<rect x="11.29" y="5.98" class="st0" width="2.37" height="8.3"/>
	<path class="st0" d="M12.48,2.47c-0.38,0-0.72,0.14-1,0.42c-0.27,0.27-0.41,0.6-0.41,0.98c0,0.38,0.14,0.72,0.41,1
		c0.28,0.27,0.62,0.41,1,0.41c0.4,0,0.73-0.14,1-0.41c0.27-0.28,0.41-0.62,0.41-1c0-0.38-0.14-0.71-0.42-0.98
		C13.19,2.62,12.86,2.47,12.48,2.47z"/>
	<path class="st0" d="M58.84,9.3c0-0.15-0.05-0.27-0.15-0.35c-0.09-0.08-0.22-0.12-0.36-0.12h-0.68v1.55h0.26v-0.6h0.3l0.3,0.6h0.31
		L58.5,9.76C58.73,9.69,58.84,9.54,58.84,9.3z M58.32,9.53h-0.41V9.09h0.41c0.17,0,0.25,0.07,0.25,0.22
		C58.57,9.46,58.49,9.53,58.32,9.53z"/>
	<path class="st0" d="M58.19,8.22c-0.4,0-0.74,0.14-1.02,0.41c-0.27,0.27-0.41,0.61-0.41,1.01c0,0.4,0.13,0.74,0.41,1.01
		c0.27,0.27,0.61,0.41,1.02,0.41c0.4,0,0.74-0.13,1.01-0.41c0.27-0.27,0.41-0.61,0.41-1.01c0-0.4-0.14-0.74-0.41-1.01
		C58.93,8.35,58.59,8.22,58.19,8.22z M59.04,10.49c-0.23,0.23-0.51,0.34-0.85,0.34c-0.34,0-0.62-0.11-0.85-0.34
		c-0.23-0.23-0.34-0.51-0.34-0.85c0-0.34,0.11-0.62,0.34-0.85c0.23-0.23,0.51-0.34,0.85-0.34c0.34,0,0.62,0.11,0.85,0.34
		c0.23,0.23,0.34,0.51,0.34,0.85C59.38,9.98,59.26,10.26,59.04,10.49z"/>
</g>
</svg>
